Coordinates
version=1
nRows=19
nColumns=33
inDegrees=yes

Units are S.I. units (second, meters, Newtons, ...)
Angles are in degrees.

endheader
time	ground_thorax_rot_x	ground_thorax_rot_y	ground_thorax_rot_z	ground_thorax_tx	ground_thorax_ty	ground_thorax_tz	clav_prot_r	clav_elev_r	scapula_abduction_r	scapula_elevation_r	scapula_upward_rot_r	scapula_winging_r	shoulder_elv_r	plane_of_elev_r	axial_rot_r	elbow_flexion_r	pro_sup_r	wrist_flex_r	wrist_dev_r	clav_prot_l	clav_elev_l	scapula_abduction_l	scapula_elevation_l	scapula_upward_rot_l	scapula_winging_l	shoulder_elv_l	plane_of_elev_l	axial_rot_l	elbow_flexion_l	pro_sup_l	wrist_flex_l	wrist_dev_l
      4.77000000	    -17.68910873	    -39.75609228	     62.32561044	    -39.52131520	    831.26578844	    -44.63533454	     22.47057081	    -45.00000000	     45.00000000	    -45.00000000	    -20.10210198	   2401.40557629	  -1537.06559909	    143.28369156	   -179.99999979	   3589.13399549	    421.94785491	     27.16683255	     17.60590365	     -2.64341329	     33.52221676	    -30.28499475	    -45.00000000	    -45.00000000	   2970.99307387	  -6041.78623376	     26.46732566	     44.24691892	   1788.39975827	   -319.73253371	     14.66834252	    -17.73320834
      4.78000000	    -17.45053737	    -39.84029860	     62.75943375	    -38.49317806	    830.71064550	    -44.51261211	     22.53156699	    -45.00000000	     45.00000000	    -45.00000000	    -20.10327144	   2401.25367705	  -1537.15067945	    143.18755930	   -179.99999979	   3589.04814986	    422.08959633	     26.85698528	     17.67979379	     -2.65887220	     33.52173496	    -30.24765606	    -45.00000000	    -45.00000000	   2970.89929036	  -6041.74669964	     26.36966043	     44.20476480	   1788.34047326	   -319.58458383	     14.50578823	    -17.45833106
      4.79000000	    -17.34519530	    -39.89563870	     62.88388439	    -37.46629631	    830.14201703	    -44.39068526	     22.47251746	    -45.00000000	     45.00000000	    -45.00000000	    -20.18891219	   2401.27463076	  -1537.28667741	    143.19847369	   -179.99999979	   3589.06755697	    422.07518923	     26.95121517	     17.58226688	     -2.68810314	     33.49911893	    -30.13615170	    -45.00000000	    -45.00000000	   2970.88064227	  -6041.80591460	     26.42520156	     44.15849345	   1788.40902915	   -319.50606165	     14.56528424	    -17.57555191
      4.80000000	    -17.11257948	    -39.97721227	     63.33722818	    -36.44002271	    829.56078033	    -44.27095494	     22.57840944	    -45.00000000	     45.00000000	    -45.00000000	    -20.19063043	   2401.08615250	  -1537.35299710	    143.10940817	   -179.99999979	   3589.02402602	    422.20349228	     26.63663409	     17.67972830	     -2.65158054	     33.47666768	    -30.06400218	    -45.00000000	    -45.00000000	   2970.81119308	  -6041.79042272	     26.33550902	     44.13220126	   1788.45100076	   -319.38182496	     14.39219868	    -17.31695894
      4.81000000	    -16.97606307	    -40.01730137	     63.48587785	    -35.40933599	    828.96500001	    -44.15402393	     22.46289119	    -45.00000000	     45.00000000	    -45.00000000	    -20.33284958	   2401.08568240	  -1537.50517480	    143.10862244	   -179.99999979	   3588.99284889	    422.12397764	     26.84834857	     17.45188268	     -2.76826780	     33.47591974	    -29.91467164	    -45.00000000	    -45.00000000	   2970.85657151	  -6041.87428597	     26.47145941	     44.10748220	   1788.54959154	   -319.33633247	     14.54921500	    -17.59899036
      4.82000000	    -16.91029707	    -40.06849589	     63.62298461	    -34.37914794	    828.35840386	    -44.04155182	     22.61018555	    -45.00000000	     45.00000000	    -45.00000000	    -20.34903730	   2401.06200052	  -1537.63773926	    143.11308280	   -179.99999979	   3589.00681814	    422.22048406	     26.73638789	     17.61724340	     -2.67810873	     33.47794848	    -30.02348649	    -45.00000000	    -45.00000000	   2970.89478582	  -6041.96191085	     26.45060321	     44.13470567	   1788.41703390	   -319.17069786	     14.48505381	    -17.40655877
      4.83000000	    -16.62408349	    -40.14441818	     64.12217066	    -33.34917079	    827.74141141	    -43.93435283	     22.57186378	    -45.00000000	     45.00000000	    -45.00000000	    -20.39207754	   2400.90209533	  -1537.70985271	    143.04013593	   -179.99999979	   3588.88970820	    422.32348141	     26.39203172	     17.61260862	     -2.75345491	     33.39140001	    -29.89302494	    -45.00000000	    -45.00000000	   2970.64532414	  -6041.81779084	     26.26250788	     44.04509470	   1788.40627609	   -319.05115961	     14.33953669	    -17.18555741
      4.84000000	    -16.50220354	    -40.19035328	     64.25075306	    -32.32087990	    827.11572130	    -43.83341084	     22.60888080	    -45.00000000	     45.00000000	    -45.00000000	    -20.54518773	   2400.84162552	  -1537.88516291	    142.95624110	   -179.99999979	   3588.90204047	    422.30618617	     26.52253172	     17.58439159	     -2.75939842	     33.45448344	    -29.72524222	    -45.00000000	    -45.00000000	   2970.78560028	  -6041.98557105	     26.51399201	     44.04961381	   1788.47580920	   -318.97394690	     14.39620228	    -17.28477064
      4.85000000	    -16.24131870	    -40.25062543	     64.73445228	    -31.29278171	    826.48072293	    -43.73915567	     22.65321743	    -45.00000000	     45.00000000	    -45.00000000	    -20.57768159	   2400.76075728	  -1537.92232554	    143.02248566	   -179.99999979	   3588.95401679	    422.41627023	     26.11979778	     17.59724207	     -2.76473427	     33.33583027	    -29.83117743	    -45.00000000	    -45.00000000	   2970.47742300	  -6041.90071245	     26.07284730	     43.97131393	   1788.55738710	   -318.85821169	     14.16457104	    -17.01315155
      4.86000000	    -16.21267388	    -40.29471668	     64.74726277	    -30.26354738	    825.83555654	    -43.65153427	     22.66576292	    -45.00000000	     45.00000000	    -45.00000000	    -20.75552775	   2400.71198462	  -1538.16221275	    142.91289827	   -179.99999979	   3588.85016771	    422.38485076	     26.43985719	     17.57478880	     -2.87741723	     33.43944371	    -29.76746722	    -45.00000000	    -45.00000000	   2970.79635887	  -6042.07180488	     26.47486441	     44.01456725	   1788.33730408	   -318.73856060	     14.39125081	    -17.19613948
      4.87000000	    -15.91892880	    -40.40573210	     65.15705260	    -29.23753901	    825.18192801	    -43.56993831	     22.71259188	    -45.00000000	     45.00000000	    -45.00000000	    -20.78635759	   2400.69613312	  -1538.23420754	    142.90960369	   -179.99999979	   3588.90742247	    422.50696132	     26.09701843	     17.61408225	     -2.73992632	     33.29119797	    -29.61543666	    -45.00000000	    -45.00000000	   2970.50746653	  -6041.97641598	     26.16335507	     43.94537318	   1788.36160532	   -318.60853474	     14.20757917	    -16.93646449
      4.88000000	    -15.80792000	    -40.44505657	     65.32282265	    -28.21222611	    824.51609718	    -43.49188554	     22.72767768	    -45.00000000	     45.00000000	    -45.00000000	    -21.11036345	   2400.54529145	  -1538.45801729	    142.80256786	   -179.99999979	   3588.84300646	    422.50495234	     26.24522485	     17.51455790	     -2.92606108	     33.41850125	    -29.35038781	    -45.00000000	    -45.00000000	   2970.61446447	  -6042.12632459	     26.47868638	     43.95502976	   1788.47474106	   -318.53361946	     14.21965228	    -17.05046027
      4.89000000	    -15.63987486	    -40.48485037	     65.58374797	    -27.18816104	    823.83487590	    -43.41397811	     22.82368145	    -45.00000000	     45.00000000	    -45.00000000	    -21.09229456	   2400.56368742	  -1538.55283963	    142.86108904	   -179.99999979	   3588.89387377	    422.58486658	     26.18586246	     17.59855969	     -2.79585046	     33.31577718	    -29.44025265	    -45.00000000	    -45.00000000	   2970.58776643	  -6042.12785715	     26.38712595	     43.94630419	   1788.44825258	   -318.39965270	     14.22151299	    -16.99813025
      4.90000000	    -15.40449733	    -40.56369367	     65.97536767	    -26.16766523	    823.13493900	    -43.33229372	     22.81515245	    -45.00000000	     45.00000000	    -45.00000000	    -21.21704893	   2400.42689063	  -1538.71144353	    142.78787625	   -179.99999979	   3588.88880953	    422.66780690	     25.97160732	     17.54634509	     -2.90356039	     33.28202783	    -29.38735284	    -45.00000000	    -45.00000000	   2970.47147162	  -6042.10451661	     26.21920641	     43.90482597	   1788.42344701	   -318.27301202	     14.10051792	    -16.84609570
      4.91000000	    -15.20902158	    -40.65823765	     66.21294486	    -25.15496796	    822.41414910	    -43.24320171	     22.86892636	    -45.00000000	     45.00000000	    -45.00000000	    -21.42592030	   2400.34666632	  -1538.87119934	    142.74943025	   -179.99999979	   3588.88966840	    422.72049931	     25.95081057	     17.54015497	     -2.89142614	     33.27964029	    -29.14641903	    -45.00000000	    -45.00000000	   2970.44002702	  -6042.18589350	     26.24430514	     43.79880357	   1788.42663839	   -318.16005821	     14.08308489	    -16.80759471
      4.92000000	    -14.99844239	    -40.68067803	     66.57792330	    -24.15599721	    821.67296259	    -43.14480322	     22.92375883	    -45.00000000	     45.00000000	    -45.00000000	    -21.58010605	   2400.26050890	  -1539.00911186	    142.72279557	   -179.99999979	   3588.89825490	    422.79169545	     25.79953692	     17.51383008	     -2.96211251	     33.23826233	    -29.13482352	    -45.00000000	    -45.00000000	   2970.33655962	  -6042.19856031	     26.20475376	     43.80216682	   1788.53131448	   -318.05537732	     13.99904549	    -16.73375863
      4.93000000	    -14.83616236	    -40.70867411	     66.84107424	    -23.16486056	    820.90567229	    -43.03634801	     22.99502927	    -45.00000000	     45.00000000	    -45.00000000	    -21.70748834	   2400.15139213	  -1539.16384932	    142.65196463	   -179.99999979	   3588.85539953	    422.83632871	     25.84047534	     17.52501684	     -2.97815892	     33.23710027	    -29.02965745	    -45.00000000	    -45.00000000	   2970.37730846	  -6042.25314250	     26.27659922	     43.74644959	   1788.49143962	   -317.92530656	     14.03766394	    -16.73501442
      4.94000000	    -14.68418035	    -40.74377029	     67.11351193	    -22.18708064	    820.11807603	    -42.92057927	     23.00129199	    -45.00000000	     45.00000000	    -45.00000000	    -21.92139199	   2400.08202342	  -1539.32589195	    142.67821374	   -179.99999979	   3588.88692884	    422.91333450	     25.63617278	     17.48204183	     -3.00870346	     33.19244304	    -28.93716979	    -45.00000000	    -45.00000000	   2970.25930765	  -6042.27223780	     26.15911357	     43.65996967	   1788.51559685	   -317.78636617	     13.94013829	    -16.59059915
      4.95000000	    -14.48156103	    -40.80317061	     67.40108077	    -21.21784504	    819.31087949	    -42.80047943	     23.08228162	    -45.00000000	     45.00000000	    -45.00000000	    -22.07566868	   2399.96346460	  -1539.50811959	    142.59325803	   -179.99999979	   3588.87217384	    422.94047774	     25.71717949	     17.48311678	     -3.04550466	     33.19646045	    -28.79854690	    -45.00000000	    -45.00000000	   2970.28772529	  -6042.33692831	     26.26490853	     43.63954861	   1788.50160083	   -317.65563524	     13.98535236	    -16.60932840
